<?xml version="1.0" standalone="no"?>
<!DOCTYPE svg PUBLIC "-//W3C//DTD SVG 20010904//EN"
 "http://www.w3.org/TR/2001/REC-SVG-20010904/DTD/svg10.dtd">
<svg version="1.0" xmlns="http://www.w3.org/2000/svg"
 width="240.000000pt" height="240.000000pt" viewBox="0 0 240.000000 240.000000"
 preserveAspectRatio="xMidYMid meet">

<g transform="translate(0.000000,240.000000) scale(0.100000,-0.100000)"
fill="#000000" stroke="none">
<path d="M1090 2289 c-369 -48 -719 -307 -881 -653 -20 -45 -41 -94 -44 -109
l-7 -28 51 3 52 3 28 66 c96 228 312 442 548 543 580 248 1245 -70 1421 -679
160 -552 -164 -1131 -723 -1293 -359 -105 -753 -3 -1024 265 -87 86 -179 220
-222 322 l-28 66 -52 3 -51 3 7 -28 c12 -51 82 -189 135 -269 29 -43 96 -122
150 -174 451 -442 1163 -438 1610 10 85 84 173 205 224 308 68 135 116 344
116 502 0 158 -48 367 -116 502 -110 221 -311 422 -532 532 -186 93 -441 134
-662 105z"/>
<path d="M1053 1611 l-31 -36 230 -188 230 -187 -741 0 -741 0 0 -50 0 -50
739 -2 738 -3 -209 -170 c-115 -93 -216 -178 -225 -188 -15 -16 -14 -20 16
-51 l33 -34 299 245 c164 134 299 248 299 253 0 8 -569 477 -595 491 -5 3 -24
-10 -42 -30z"/>
</g>
</svg>
